<?xml version="1.0" encoding="UTF-8" standalone="no"?><!DOCTYPE svg PUBLIC "-//W3C//DTD SVG 1.1//EN" "http://www.w3.org/Graphics/SVG/1.1/DTD/svg11.dtd"><svg width="100%" height="100%" viewBox="0 0 29 29" version="1.1" xmlns="http://www.w3.org/2000/svg" xmlns:xlink="http://www.w3.org/1999/xlink" xml:space="preserve" xmlns:serif="http://www.serif.com/" style="fill-rule:evenodd;clip-rule:evenodd;stroke-linecap:round;stroke-linejoin:round;stroke-miterlimit:1.5;"><g id="calendar"><rect x="0" y="0" width="28.346" height="28.346" style="fill:none;"/><path d="M26.293,6.551c0,-1.629 -1.322,-2.951 -2.951,-2.951l-18.338,0c-1.628,0 -2.951,1.322 -2.951,2.951l0,16.178c0,1.629 1.323,2.951 2.951,2.951l18.338,0c1.629,0 2.951,-1.322 2.951,-2.951l0,-16.178Z" style="fill:none;stroke:#000;stroke-width:2px;"/><rect x="5.58" y="1.2" width="2.52" height="4.8"/><rect x="5.58" y="1.2" width="2.52" height="4.8" style="fill:none;stroke:#000;stroke-width:0.55px;stroke-linejoin:miter;"/><rect x="19.74" y="1.2" width="2.52" height="4.8"/><rect x="4.273" y="13.213" width="2.52" height="1.92"/><rect x="4.273" y="16.826" width="2.52" height="1.92"/><rect x="4.273" y="20.44" width="2.52" height="1.92"/><rect x="8.593" y="13.213" width="2.52" height="1.92"/><rect x="8.593" y="16.826" width="2.52" height="1.92"/><rect x="8.593" y="20.44" width="2.52" height="1.92"/><rect x="12.913" y="9.6" width="2.52" height="1.92"/><rect x="12.913" y="13.213" width="2.52" height="1.92"/><rect x="12.913" y="16.826" width="2.52" height="1.92"/><rect x="17.233" y="9.6" width="2.52" height="1.92"/><rect x="17.233" y="13.213" width="2.52" height="1.92"/><rect x="17.233" y="16.826" width="2.52" height="1.92"/><rect x="21.553" y="9.6" width="2.52" height="1.92"/><rect x="21.553" y="13.213" width="2.52" height="1.92"/><rect x="21.553" y="16.826" width="2.52" height="1.92"/><rect x="19.74" y="1.2" width="2.52" height="4.8" style="fill:none;stroke:#000;stroke-width:0.55px;stroke-linejoin:miter;"/></g></svg>