<?xml version="1.0" encoding="UTF-8" standalone="no"?><!DOCTYPE svg PUBLIC "-//W3C//DTD SVG 1.1//EN" "http://www.w3.org/Graphics/SVG/1.1/DTD/svg11.dtd"><svg width="100%" height="100%" viewBox="0 0 64 64" version="1.1" xmlns="http://www.w3.org/2000/svg" xmlns:xlink="http://www.w3.org/1999/xlink" xml:space="preserve" xmlns:serif="http://www.serif.com/" style="fill-rule:evenodd;clip-rule:evenodd;stroke-linejoin:round;stroke-miterlimit:1.41421;"><rect id="ThumbUp" x="0" y="0" width="64" height="64" style="fill:none;"/><clipPath id="_clip1"><rect id="ThumbUp1" serif:id="ThumbUp" x="0" y="0" width="64" height="64"/></clipPath><g clip-path="url(#_clip1)"><circle cx="32.201" cy="32.058" r="31.181" style="fill:#00a500;"/><path id="path3892" d="M19.678,42.968c0,-0.417 -0.152,-0.778 -0.457,-1.083c-0.305,-0.305 -0.666,-0.457 -1.083,-0.457c-0.417,0 -0.778,0.152 -1.083,0.457c-0.305,0.305 -0.457,0.666 -0.457,1.083c0,0.417 0.152,0.778 0.457,1.083c0.305,0.305 0.666,0.457 1.083,0.457c0.417,0 0.778,-0.152 1.083,-0.457c0.305,-0.305 0.457,-0.666 0.457,-1.083Zm27.724,-13.862c0,-0.818 -0.313,-1.536 -0.939,-2.154c-0.625,-0.617 -1.339,-0.926 -2.141,-0.926l-8.472,0c0,-0.931 0.386,-2.21 1.156,-3.839c0.77,-1.628 1.155,-2.916 1.155,-3.862c0,-1.572 -0.257,-2.736 -0.77,-3.49c-0.514,-0.754 -1.541,-1.131 -3.081,-1.131c-0.417,0.417 -0.722,1.099 -0.914,2.046c-0.193,0.946 -0.437,1.953 -0.734,3.02c-0.297,1.067 -0.774,1.945 -1.432,2.635c-0.353,0.369 -0.971,1.099 -1.853,2.19c-0.064,0.08 -0.249,0.321 -0.554,0.722c-0.304,0.401 -0.557,0.73 -0.758,0.987c-0.2,0.257 -0.477,0.597 -0.83,1.023c-0.353,0.425 -0.674,0.778 -0.963,1.058c-0.288,0.281 -0.597,0.566 -0.926,0.855c-0.329,0.289 -0.65,0.505 -0.963,0.65c-0.313,0.144 -0.597,0.216 -0.854,0.216l-0.77,0l0,15.402l0.77,0c0.208,0 0.461,0.024 0.758,0.072c0.297,0.048 0.562,0.101 0.794,0.157c0.233,0.056 0.538,0.144 0.915,0.265c0.377,0.12 0.657,0.212 0.842,0.276c0.184,0.064 0.469,0.165 0.854,0.301c0.385,0.136 0.618,0.221 0.698,0.253c3.385,1.171 6.129,1.757 8.231,1.757l2.912,0c3.08,0 4.62,-1.34 4.62,-4.019c0,-0.418 -0.04,-0.867 -0.12,-1.348c0.481,-0.257 0.862,-0.678 1.143,-1.264c0.281,-0.585 0.421,-1.175 0.421,-1.768c0,-0.594 -0.144,-1.147 -0.433,-1.661c0.85,-0.802 1.275,-1.757 1.275,-2.864c0,-0.401 -0.08,-0.846 -0.24,-1.335c-0.161,-0.49 -0.361,-0.871 -0.602,-1.143c0.513,-0.016 0.943,-0.393 1.288,-1.132c0.345,-0.738 0.517,-1.387 0.517,-1.949Zm3.08,-0.024c0,1.428 -0.393,2.736 -1.179,3.923c0.145,0.529 0.217,1.083 0.217,1.66c0,1.236 -0.305,2.391 -0.915,3.466c0.048,0.337 0.072,0.682 0.072,1.035c0,1.62 -0.481,3.048 -1.443,4.283c0.016,2.23 -0.666,3.991 -2.046,5.283c-1.38,1.291 -3.201,1.937 -5.463,1.937l-0.866,0l-2.238,0c-1.541,0 -3.061,-0.181 -4.561,-0.542c-1.5,-0.361 -3.237,-0.886 -5.21,-1.576c-1.861,-0.642 -2.968,-0.962 -3.321,-0.962l-6.931,0c-0.85,0 -1.576,-0.301 -2.178,-0.903c-0.602,-0.602 -0.902,-1.328 -0.902,-2.178l0,-15.402c0,-0.85 0.3,-1.576 0.902,-2.178c0.602,-0.601 1.328,-0.902 2.178,-0.902l6.594,0c0.578,-0.385 1.677,-1.629 3.297,-3.73c0.931,-1.204 1.789,-2.23 2.575,-3.081c0.385,-0.401 0.67,-1.087 0.854,-2.057c0.185,-0.971 0.429,-1.986 0.734,-3.045c0.305,-1.059 0.803,-1.925 1.492,-2.599c0.626,-0.593 1.348,-0.89 2.166,-0.89c1.348,0 2.559,0.261 3.634,0.782c1.075,0.521 1.893,1.336 2.455,2.443c0.561,1.107 0.842,2.599 0.842,4.476c0,1.492 -0.385,3.032 -1.155,4.62l4.236,0c1.668,0 3.112,0.61 4.331,1.829c1.22,1.22 1.829,2.656 1.829,4.308Z" style="fill:#edeff5;fill-rule:nonzero;"/></g></svg>